<svg width="335" height="233" viewBox="0 0 335 233" fill="none" xmlns="http://www.w3.org/2000/svg">
<g filter="url(#filter0_d_27_242)">
<path fill-rule="evenodd" clip-rule="evenodd" d="M134.26 75.213C145.617 101.697 156.528 127.143 206.655 125.776C252.651 124.521 281.825 129.158 298.432 137.175V159C298.432 170.046 289.478 179 278.432 179H45C33.9543 179 25 170.046 25 159V48C25 36.9543 33.9543 28 45 28H98.2909C118.683 38.8862 126.573 57.2875 134.26 75.213Z" fill="white" fill-opacity="0.08"/>
<path fill-rule="evenodd" clip-rule="evenodd" d="M42.9149 28.1074C32.8491 29.1501 25 37.6584 25 48V159C25 170.046 33.9543 179 45 179H278.432C287.324 179 294.86 173.198 297.461 165.174C298.892 144.81 271.921 128.684 192.732 130.843C144.867 132.149 134.448 107.851 123.604 82.5616C112.131 55.8071 100.182 27.9422 42.9149 28.1074Z" fill="white" fill-opacity="0.08"/>
</g>
<defs>
<filter id="filter0_d_27_242" x="-21" y="0" width="355.432" height="233" filterUnits="userSpaceOnUse" color-interpolation-filters="sRGB">
<feFlood flood-opacity="0" result="BackgroundImageFix"/>
<feColorMatrix in="SourceAlpha" type="matrix" values="0 0 0 0 0 0 0 0 0 0 0 0 0 0 0 0 0 0 127 0" result="hardAlpha"/>
<feOffset dx="-5" dy="13"/>
<feGaussianBlur stdDeviation="20.5"/>
<feComposite in2="hardAlpha" operator="out"/>
<feColorMatrix type="matrix" values="0 0 0 0 0.486274 0 0 0 0 0.517647 0 0 0 0 1 0 0 0 0.32 0"/>
<feBlend mode="normal" in2="BackgroundImageFix" result="effect1_dropShadow_27_242"/>
<feBlend mode="normal" in="SourceGraphic" in2="effect1_dropShadow_27_242" result="shape"/>
</filter>
</defs>
</svg>
