<svg width="52" height="151" viewBox="0 0 52 151" fill="none" xmlns="http://www.w3.org/2000/svg">
<path fill-rule="evenodd" clip-rule="evenodd" d="M210.065 151C216.191 135.737 219.562 119.072 219.562 101.619C219.562 60.8238 201.145 24.3304 172.171 0H20C8.95431 0 0 8.95431 0 20V131C0 142.046 8.9543 151 20 151H210.065Z" fill="white" fill-opacity="0.06"/>
<path fill-rule="evenodd" clip-rule="evenodd" d="M195.594 151C200.543 137.095 203.238 122.12 203.238 106.516C203.238 62.8839 182.169 24.1724 149.651 0L20 0C8.95431 0 0 8.95431 0 20V131C0 142.046 8.9543 151 20 151H195.594Z" fill="white" fill-opacity="0.06"/>
</svg>
