<svg width="25" height="12" viewBox="0 0 25 12" fill="none" xmlns="http://www.w3.org/2000/svg">
<path d="M18 9H8" stroke="#2D2D2D" stroke-width="2" stroke-linecap="round" stroke-linejoin="round"/>
<path d="M4 9H2L1 7V5L3 2C3.17 1.66 3.62 1 4 1H14.59C14.8524 1.0011 15.1037 1.10529 15.29 1.29004L17.77 3.77002C17.9192 3.91901 18.1117 4.01704 18.32 4.05005L23 5.05005C23.2523 5.08634 23.4861 5.20328 23.6664 5.38354C23.8466 5.56381 23.9637 5.79771 24 6.05005V9.05005H22" stroke="#2D2D2D" stroke-width="2" stroke-linecap="round" stroke-linejoin="round"/>
<path d="M6 11C7.10457 11 8 10.1046 8 9C8 7.89543 7.10457 7 6 7C4.89543 7 4 7.89543 4 9C4 10.1046 4.89543 11 6 11Z" stroke="#2D2D2D" stroke-width="2" stroke-linecap="round" stroke-linejoin="round"/>
<path d="M20 11C21.1046 11 22 10.1046 22 9C22 7.89543 21.1046 7 20 7C18.8954 7 18 7.89543 18 9C18 10.1046 18.8954 11 20 11Z" stroke="#2D2D2D" stroke-width="2" stroke-linecap="round" stroke-linejoin="round"/>
</svg>
