<svg width="23" height="22" viewBox="0 0 23 22" fill="none" xmlns="http://www.w3.org/2000/svg">
<path d="M1 12.4286C1.00701 12.697 1.06697 12.9613 1.17648 13.2065C1.28598 13.4517 1.44286 13.6728 1.63808 13.8571C2.81348 14.7825 4.26597 15.2856 5.7619 15.2856C7.25784 15.2856 8.71033 14.7825 9.88573 13.8571C10.0809 13.6728 10.2378 13.4517 10.3473 13.2065C10.4568 12.9613 10.5168 12.697 10.5238 12.4286" stroke="#2B69F5" stroke-width="2" stroke-linecap="round" stroke-linejoin="round"/>
<path d="M10.5238 15.2857C10.5168 15.5541 10.4568 15.8185 10.3473 16.0637C10.2378 16.3088 10.081 16.5299 9.88574 16.7143" stroke="#2B69F5" stroke-width="2" stroke-linecap="round" stroke-linejoin="round"/>
<path d="M1.63808 16.7143C1.44286 16.5299 1.28598 16.3088 1.17648 16.0637C1.06697 15.8185 1.00701 15.5541 1 15.2857" stroke="#2B69F5" stroke-width="2" stroke-linecap="round" stroke-linejoin="round"/>
<path d="M1 6.71428C1.00701 6.98269 1.06697 7.24706 1.17648 7.49222C1.28598 7.73738 1.44286 7.9585 1.63808 8.14285C2.81348 9.0682 4.26597 9.57131 5.7619 9.57131C7.25784 9.57131 8.71033 9.0682 9.88573 8.14285C10.0809 7.9585 10.2378 7.73738 10.3473 7.49222C10.4568 7.24706 10.5168 6.98269 10.5238 6.71428" stroke="#2B69F5" stroke-width="2" stroke-linecap="round" stroke-linejoin="round"/>
<path d="M5.7619 6.71429C8.39183 6.71429 10.5238 5.4351 10.5238 3.85714C10.5238 2.27919 8.39183 1 5.7619 1C3.13198 1 1 2.27919 1 3.85714C1 5.4351 3.13198 6.71429 5.7619 6.71429Z" stroke="#2B69F5" stroke-width="2" stroke-linecap="round" stroke-linejoin="round"/>
<path d="M1 9.57143C1.00701 9.83984 1.06697 10.1042 1.17648 10.3494C1.28598 10.5945 1.44286 10.8156 1.63808 11C2.81348 11.9253 4.26597 12.4285 5.7619 12.4285C7.25784 12.4285 8.71033 11.9253 9.88573 11C10.0809 10.8156 10.2378 10.5945 10.3473 10.3494C10.4568 10.1042 10.5168 9.83984 10.5238 9.57143" stroke="#2B69F5" stroke-width="2" stroke-linecap="round" stroke-linejoin="round"/>
<path d="M1 18.1429C1 19.7238 3.13333 21 5.7619 21C8.39048 21 10.5238 19.7238 10.5238 18.1429" stroke="#2B69F5" stroke-width="2" stroke-linecap="round" stroke-linejoin="round"/>
<path d="M1.63806 16.7143C2.81346 17.6396 4.26595 18.1427 5.76189 18.1427C7.25783 18.1427 8.71031 17.6396 9.88571 16.7143" stroke="#2B69F5" stroke-width="2" stroke-linecap="round" stroke-linejoin="round"/>
<path d="M10.5238 18.1429V15.2857V12.4286V9.57143V6.71429V3.85715" stroke="#2B69F5" stroke-width="2" stroke-linecap="round" stroke-linejoin="round"/>
<path d="M1 18.1429V15.2857V12.4286V9.57143V6.71429V3.85715" stroke="#2B69F5" stroke-width="2" stroke-linecap="round" stroke-linejoin="round"/>
<path d="M12.4286 18.1429C12.4356 18.4113 12.4956 18.6756 12.6051 18.9208C12.7146 19.1659 12.8714 19.3871 13.0667 19.5714C14.2421 20.4968 15.6946 20.9999 17.1905 20.9999C18.6864 20.9999 20.1389 20.4968 21.3143 19.5714C21.5095 19.3871 21.6664 19.1659 21.7759 18.9208C21.8854 18.6756 21.9454 18.4113 21.9524 18.1429" stroke="#2B69F5" stroke-width="2" stroke-linecap="round" stroke-linejoin="round"/>
<path d="M12.4286 12.4286C12.4356 12.697 12.4956 12.9613 12.6051 13.2065C12.7146 13.4517 12.8714 13.6728 13.0667 13.8571C14.2421 14.7825 15.6946 15.2856 17.1905 15.2856C18.6864 15.2856 20.1389 14.7825 21.3143 13.8571C21.5095 13.6728 21.6664 13.4517 21.7759 13.2065C21.8854 12.9613 21.9454 12.697 21.9524 12.4286" stroke="#2B69F5" stroke-width="2" stroke-linecap="round" stroke-linejoin="round"/>
<path d="M17.1905 12.4286C19.8204 12.4286 21.9524 11.1494 21.9524 9.57142C21.9524 7.99347 19.8204 6.71428 17.1905 6.71428C14.5606 6.71428 12.4286 7.99347 12.4286 9.57142C12.4286 11.1494 14.5606 12.4286 17.1905 12.4286Z" stroke="#2B69F5" stroke-width="2" stroke-linecap="round" stroke-linejoin="round"/>
<path d="M12.4286 15.2857C12.4356 15.5541 12.4956 15.8185 12.6051 16.0637C12.7146 16.3088 12.8714 16.5299 13.0667 16.7143C14.2421 17.6396 15.6946 18.1427 17.1905 18.1427C18.6864 18.1427 20.1389 17.6396 21.3143 16.7143C21.5095 16.5299 21.6664 16.3088 21.7759 16.0637C21.8854 15.8185 21.9454 15.5541 21.9524 15.2857" stroke="#2B69F5" stroke-width="2" stroke-linecap="round" stroke-linejoin="round"/>
<path d="M21.9524 9.57143V12.4286V15.2857V18.1429" stroke="#2B69F5" stroke-width="2" stroke-linecap="round" stroke-linejoin="round"/>
<path d="M12.4286 9.57143V12.4286V15.2857V18.1429" stroke="#2B69F5" stroke-width="2" stroke-linecap="round" stroke-linejoin="round"/>
</svg>
