<svg width="375" height="118" viewBox="0 0 375 118" fill="none" xmlns="http://www.w3.org/2000/svg">
<g filter="url(#filter0_d_31_1084)">
<path d="M19 56C19 35.5655 35.5655 19 56 19H320C340.435 19 357 35.5655 357 56V56C357 76.4345 340.435 93 320 93H56C35.5655 93 19 76.4345 19 56V56Z" fill="#2D2D2D"/>
</g>
<g filter="url(#filter1_d_31_1084)">
<rect x="280" y="51.3636" width="3.63636" height="15.4545" rx="1.81818" fill="white"/>
<rect x="288.182" y="45" width="3.63636" height="21.8182" rx="1.81818" fill="white"/>
<rect x="296.364" y="57.7273" width="3.63636" height="9.09091" rx="1.81818" fill="white"/>
</g>
<g filter="url(#filter2_d_31_1084)">
<rect x="161" y="29" width="53" height="53" rx="26.5" fill="white"/>
</g>
<g filter="url(#filter3_d_31_1084)">
<path d="M198 49H177C176.448 49 176 49.4477 176 50V63C176 63.5523 176.448 64 177 64H198C198.552 64 199 63.5523 199 63V50C199 49.4477 198.552 49 198 49Z" stroke="#2D2D2D" stroke-width="2" stroke-linecap="round" stroke-linejoin="round"/>
<path d="M199 52H176V55H199V52Z" stroke="#2D2D2D" stroke-width="2" stroke-linecap="round" stroke-linejoin="round"/>
<path d="M191 61H196" stroke="#2D2D2D" stroke-width="2" stroke-linecap="round" stroke-linejoin="round"/>
</g>
<g filter="url(#filter4_d_31_1084)">
<path d="M82.6625 66.3088L82.6927 63.0725C82.6927 62.1788 83.4245 61.4527 84.3308 61.4471H87.6588C88.5692 61.4471 89.3073 62.1748 89.3073 63.0725V66.5892C89.3072 67.3643 89.9415 67.9943 90.7276 68H92.9981C94.0585 68.0026 95.0764 67.5892 95.8272 66.8508C96.578 66.1124 97 65.1097 97 64.0641V54.0457C97 53.2011 96.6203 52.3999 95.9632 51.858L88.2498 45.7754C86.9014 44.7115 84.9757 44.7459 83.6673 45.8572L76.1197 51.858C75.4316 52.3839 75.0203 53.1875 75 54.0457V64.0539C75 66.2332 76.7917 68 79.0019 68H81.2205C81.599 68.0027 81.963 67.8563 82.2316 67.5934C82.5002 67.3304 82.6513 66.9726 82.6513 66.5994L82.6625 66.3088Z" stroke="white" stroke-width="2" shape-rendering="crispEdges"/>
</g>
<defs>
<filter id="filter0_d_31_1084" x="-11" y="0" width="398" height="134" filterUnits="userSpaceOnUse" color-interpolation-filters="sRGB">
<feFlood flood-opacity="0" result="BackgroundImageFix"/>
<feColorMatrix in="SourceAlpha" type="matrix" values="0 0 0 0 0 0 0 0 0 0 0 0 0 0 0 0 0 0 127 0" result="hardAlpha"/>
<feOffset dy="11"/>
<feGaussianBlur stdDeviation="15"/>
<feComposite in2="hardAlpha" operator="out"/>
<feColorMatrix type="matrix" values="0 0 0 0 0 0 0 0 0 0 0 0 0 0 0 0 0 0 0.25 0"/>
<feBlend mode="normal" in2="BackgroundImageFix" result="effect1_dropShadow_31_1084"/>
<feBlend mode="normal" in="SourceGraphic" in2="effect1_dropShadow_31_1084" result="shape"/>
</filter>
<filter id="filter1_d_31_1084" x="250" y="26" width="80" height="81.8182" filterUnits="userSpaceOnUse" color-interpolation-filters="sRGB">
<feFlood flood-opacity="0" result="BackgroundImageFix"/>
<feColorMatrix in="SourceAlpha" type="matrix" values="0 0 0 0 0 0 0 0 0 0 0 0 0 0 0 0 0 0 127 0" result="hardAlpha"/>
<feOffset dy="11"/>
<feGaussianBlur stdDeviation="15"/>
<feComposite in2="hardAlpha" operator="out"/>
<feColorMatrix type="matrix" values="0 0 0 0 0 0 0 0 0 0 0 0 0 0 0 0 0 0 0.13 0"/>
<feBlend mode="normal" in2="BackgroundImageFix" result="effect1_dropShadow_31_1084"/>
<feBlend mode="normal" in="SourceGraphic" in2="effect1_dropShadow_31_1084" result="shape"/>
</filter>
<filter id="filter2_d_31_1084" x="131" y="10" width="113" height="113" filterUnits="userSpaceOnUse" color-interpolation-filters="sRGB">
<feFlood flood-opacity="0" result="BackgroundImageFix"/>
<feColorMatrix in="SourceAlpha" type="matrix" values="0 0 0 0 0 0 0 0 0 0 0 0 0 0 0 0 0 0 127 0" result="hardAlpha"/>
<feOffset dy="11"/>
<feGaussianBlur stdDeviation="15"/>
<feComposite in2="hardAlpha" operator="out"/>
<feColorMatrix type="matrix" values="0 0 0 0 0 0 0 0 0 0 0 0 0 0 0 0 0 0 0.13 0"/>
<feBlend mode="normal" in2="BackgroundImageFix" result="effect1_dropShadow_31_1084"/>
<feBlend mode="normal" in="SourceGraphic" in2="effect1_dropShadow_31_1084" result="shape"/>
</filter>
<filter id="filter3_d_31_1084" x="145" y="29" width="85" height="77" filterUnits="userSpaceOnUse" color-interpolation-filters="sRGB">
<feFlood flood-opacity="0" result="BackgroundImageFix"/>
<feColorMatrix in="SourceAlpha" type="matrix" values="0 0 0 0 0 0 0 0 0 0 0 0 0 0 0 0 0 0 127 0" result="hardAlpha"/>
<feOffset dy="11"/>
<feGaussianBlur stdDeviation="15"/>
<feComposite in2="hardAlpha" operator="out"/>
<feColorMatrix type="matrix" values="0 0 0 0 0 0 0 0 0 0 0 0 0 0 0 0 0 0 0.13 0"/>
<feBlend mode="normal" in2="BackgroundImageFix" result="effect1_dropShadow_31_1084"/>
<feBlend mode="normal" in="SourceGraphic" in2="effect1_dropShadow_31_1084" result="shape"/>
</filter>
<filter id="filter4_d_31_1084" x="44" y="25" width="84" height="85" filterUnits="userSpaceOnUse" color-interpolation-filters="sRGB">
<feFlood flood-opacity="0" result="BackgroundImageFix"/>
<feColorMatrix in="SourceAlpha" type="matrix" values="0 0 0 0 0 0 0 0 0 0 0 0 0 0 0 0 0 0 127 0" result="hardAlpha"/>
<feOffset dy="11"/>
<feGaussianBlur stdDeviation="15"/>
<feComposite in2="hardAlpha" operator="out"/>
<feColorMatrix type="matrix" values="0 0 0 0 0 0 0 0 0 0 0 0 0 0 0 0 0 0 0.13 0"/>
<feBlend mode="normal" in2="BackgroundImageFix" result="effect1_dropShadow_31_1084"/>
<feBlend mode="normal" in="SourceGraphic" in2="effect1_dropShadow_31_1084" result="shape"/>
</filter>
</defs>
</svg>
