<svg width="21" height="16" viewBox="0 0 21 16" fill="none" xmlns="http://www.w3.org/2000/svg">
<path d="M18.8519 13.0973C13.0692 10.8585 7.24531 16.8229 1.43788 13.9233C1.30472 13.8525 1.19352 13.7465 1.11634 13.6168C1.03916 13.4872 0.998918 13.339 1.00002 13.1881V3.39893C1.00013 3.26258 1.03401 3.12835 1.09859 3.00827C1.16318 2.88819 1.25646 2.78594 1.37016 2.71069C1.48386 2.63543 1.61441 2.5895 1.75018 2.57697C1.88595 2.56444 2.02275 2.58571 2.1483 2.63889C7.93096 4.8776 13.7549 -1.08679 19.5623 1.8128C19.6955 1.88369 19.8067 1.9897 19.8838 2.1193C19.961 2.24891 20.0013 2.39719 20.0002 2.54803V12.3042C20.0057 12.4433 19.9759 12.5815 19.9137 12.7061C19.8515 12.8306 19.7588 12.9375 19.6442 13.0166C19.5296 13.0957 19.3969 13.1446 19.2584 13.1587C19.1199 13.1728 18.98 13.1517 18.8519 13.0973Z" stroke="#979797" stroke-width="2" stroke-linecap="round" stroke-linejoin="round"/>
<path d="M10.087 10.7594C11.6838 10.7594 12.9783 9.46489 12.9783 7.86806C12.9783 6.27122 11.6838 4.97673 10.087 4.97673C8.49017 4.97673 7.19568 6.27122 7.19568 7.86806C7.19568 9.46489 8.49017 10.7594 10.087 10.7594Z" stroke="#979797" stroke-width="2" stroke-linecap="round" stroke-linejoin="round"/>
</svg>
