<svg width="23" height="23" viewBox="0 0 23 23" fill="none" xmlns="http://www.w3.org/2000/svg">
<path d="M21.4482 15.8453L1.00183 21.41L5.71047 1C9.41636 1.85249 12.8281 3.67733 15.5942 6.28664C18.3604 8.89596 20.9328 11.8501 22 15.5L21.4482 15.8453Z" stroke="#2D2D2D" stroke-width="2" stroke-linecap="round" stroke-linejoin="round"/>
<path d="M4.98181 4.15129C7.75247 5.00507 10.3201 6.41444 12.528 8.29348C14.7359 10.1725 16.5376 12.4818 17.8234 15.0803" stroke="#2D2D2D" stroke-width="2" stroke-linecap="round" stroke-linejoin="round"/>
<path d="M4.35343 6.8562H4.64482C5.24869 6.8562 5.82788 7.09603 6.25488 7.52303C6.68187 7.95003 6.92171 8.52922 6.92171 9.13308C6.92171 9.73695 6.68187 10.316 6.25488 10.743C5.82788 11.17 5.24869 11.41 4.64482 11.41C4.20279 11.4093 3.77006 11.2829 3.39709 11.0456" stroke="#2D2D2D" stroke-width="2" stroke-linecap="round" stroke-linejoin="round"/>
<path d="M12.1586 15.7178C13.4161 15.7178 14.4355 14.6984 14.4355 13.4409C14.4355 12.1834 13.4161 11.164 12.1586 11.164C10.9011 11.164 9.88171 12.1834 9.88171 13.4409C9.88171 14.6984 10.9011 15.7178 12.1586 15.7178Z" stroke="#2D2D2D" stroke-width="2" stroke-linecap="round" stroke-linejoin="round"/>
<path d="M8.14211 19.461C8.23846 19.2111 8.28789 18.9456 8.28786 18.6778C8.28786 18.0739 8.04803 17.4947 7.62103 17.0677C7.19403 16.6407 6.61485 16.4009 6.01098 16.4009C5.40711 16.4009 4.82793 16.6407 4.40093 17.0677C3.97393 17.4947 3.73409 18.0739 3.73409 18.6778C3.73116 19.0151 3.80504 19.3488 3.95022 19.6533C4.0954 19.9579 4.30809 20.2254 4.57203 20.4356" stroke="#2D2D2D" stroke-width="2" stroke-linecap="round" stroke-linejoin="round"/>
</svg>
