<svg width="19" height="19" viewBox="0 0 19 19" fill="none" xmlns="http://www.w3.org/2000/svg">
<path d="M1.22267 10.5666L8.43336 17.7773C8.50333 17.8479 8.58659 17.9039 8.67831 17.9421C8.77003 17.9803 8.86842 18 8.96778 18C9.06715 18 9.16553 17.9803 9.25725 17.9421C9.34897 17.9039 9.43223 17.8479 9.5022 17.7773L17.7817 9.49779C17.9208 9.3576 17.9992 9.16841 18 8.97095V1.75268C18 1.55306 17.9207 1.36162 17.7795 1.22047C17.6384 1.07931 17.4469 1 17.2473 1H10.029C9.83159 1.00083 9.6424 1.07921 9.5022 1.21826L1.22267 9.49779C1.15212 9.56777 1.0961 9.65103 1.05788 9.74275C1.01967 9.83447 1 9.93285 1 10.0322C1 10.1316 1.01967 10.23 1.05788 10.3217C1.0961 10.4134 1.15212 10.4967 1.22267 10.5666Z" stroke="#979797" stroke-width="2" stroke-linecap="round" stroke-linejoin="round"/>
<path d="M14.2366 6.26879C15.068 6.26879 15.7419 5.59482 15.7419 4.76342C15.7419 3.93203 15.068 3.25805 14.2366 3.25805C13.4052 3.25805 12.7312 3.93203 12.7312 4.76342C12.7312 5.59482 13.4052 6.26879 14.2366 6.26879Z" stroke="#979797" stroke-width="2" stroke-linecap="round" stroke-linejoin="round"/>
</svg>
