<svg width="21" height="17" viewBox="0 0 21 17" fill="none" xmlns="http://www.w3.org/2000/svg">
<path d="M18.8512 13.5426C13.0691 11.3041 7.24563 17.268 1.43869 14.3687C1.30555 14.2978 1.19436 14.1918 1.11719 14.0622C1.04001 13.9326 0.999773 13.7843 1.00088 13.6335V3.84514C1.00099 3.7088 1.03486 3.57458 1.09944 3.45451C1.16402 3.33444 1.25729 3.2322 1.37098 3.15695C1.48467 3.08171 1.61521 3.03578 1.75097 3.02325C1.88673 3.01072 2.02352 3.03199 2.14906 3.08516C7.93122 5.32368 13.7546 -0.640201 19.5616 2.25914C19.6947 2.33003 19.8059 2.43602 19.8831 2.56562C19.9603 2.69522 20.0005 2.84348 19.9994 2.99431V12.7496C20.0049 12.8887 19.9752 13.027 19.9129 13.1515C19.8507 13.276 19.758 13.3829 19.6435 13.462C19.5289 13.5411 19.3962 13.5899 19.2577 13.604C19.1192 13.6181 18.9794 13.597 18.8512 13.5426Z" stroke="#2D2D2D" stroke-width="2" stroke-linecap="round" stroke-linejoin="round"/>
<path d="M10.0871 11.2049C11.6838 11.2049 12.9782 9.91057 12.9782 8.31387C12.9782 6.71717 11.6838 5.42279 10.0871 5.42279C8.49043 5.42279 7.19604 6.71717 7.19604 8.31387C7.19604 9.91057 8.49043 11.2049 10.0871 11.2049Z" stroke="#2D2D2D" stroke-width="2" stroke-linecap="round" stroke-linejoin="round"/>
</svg>
