<svg width="20" height="24" viewBox="0 0 20 24" fill="none" xmlns="http://www.w3.org/2000/svg">
<path d="M9.50762 19.597H17.1643C17.3899 19.597 17.6063 19.5074 17.7659 19.3478C17.9254 19.1883 18.015 18.9719 18.015 18.7463V16.9342C18.0194 16.7364 17.9547 16.5432 17.8321 16.3879C17.7094 16.2326 17.5364 16.125 17.3429 16.0835C15.3862 15.522 14.9949 13.1824 14.6121 8.51186C14.3994 5.95963 12.9106 3.40741 9.50762 3.40741C6.10466 3.40741 4.61586 5.95963 4.40317 8.51186C4.02034 13.1824 3.629 15.522 1.6723 16.0835C1.47881 16.125 1.30585 16.2326 1.18318 16.3879C1.06051 16.5432 0.995809 16.7364 1.00021 16.9342V18.7463C1.00021 18.9719 1.08984 19.1883 1.24939 19.3478C1.40893 19.5074 1.62532 19.597 1.85095 19.597H9.50762Z" stroke="#2D2D2D" stroke-width="2" stroke-linecap="round" stroke-linejoin="round"/>
<path d="M9.50739 23C9.05613 23 8.62335 22.8207 8.30426 22.5016C7.98517 22.1825 7.80591 21.7498 7.80591 21.2985V19.597H11.2089V21.2985C11.2089 21.7498 11.0296 22.1825 10.7105 22.5016C10.3914 22.8207 9.95865 23 9.50739 23Z" stroke="#2D2D2D" stroke-width="2" stroke-linecap="round" stroke-linejoin="round"/>
<circle cx="13.5" cy="4.5" r="4.5" fill="white"/>
<circle cx="13.5" cy="4.5" r="3.5" fill="#F24E30"/>
</svg>
