<svg width="22" height="14" viewBox="0 0 22 14" fill="none" xmlns="http://www.w3.org/2000/svg">
<path d="M0.671782 11.7115H4.30478C4.4693 12.4221 4.88003 13.0455 5.4591 13.4635C6.03816 13.8816 6.74529 14.0651 7.4464 13.9794C8.1475 13.8936 8.79384 13.5446 9.26285 12.9984C9.73185 12.4522 9.99092 11.7469 9.99092 11.0161C9.99092 10.2854 9.73185 9.58001 9.26285 9.03382C8.79384 8.48763 8.1475 8.13857 7.4464 8.05284C6.74529 7.9671 6.03816 8.15064 5.4591 8.56867C4.88003 8.98669 4.4693 9.61013 4.30478 10.3208H0.671782C0.493615 10.3208 0.322744 10.394 0.19676 10.5244C0.0707768 10.6548 0 10.8317 0 11.0161C0 11.2005 0.0707768 11.3774 0.19676 11.5078C0.322744 11.6382 0.493615 11.7115 0.671782 11.7115Z" fill="#2B69F5"/>
<path d="M0.671782 3.67924H10.0117C10.1762 4.38987 10.587 5.01331 11.166 5.43133C11.7451 5.84936 12.4522 6.0329 13.1533 5.94716C13.8544 5.86143 14.5008 5.51237 14.9698 4.96618C15.4388 4.41999 15.6978 3.71464 15.6978 2.98389C15.6978 2.25314 15.4388 1.54779 14.9698 1.0016C14.5008 0.455413 13.8544 0.106354 13.1533 0.0206162C12.4522 -0.0651212 11.7451 0.118424 11.166 0.536448C10.587 0.954472 10.1762 1.57791 10.0117 2.28854H0.671782C0.493615 2.28854 0.322744 2.3618 0.19676 2.4922C0.0707768 2.62261 0 2.79947 0 2.98389C0 3.16831 0.0707768 3.34517 0.19676 3.47558C0.322744 3.60598 0.493615 3.67924 0.671782 3.67924Z" fill="#2B69F5"/>
<path d="M20.7404 10.3208H11.2435C11.0654 10.3208 10.8945 10.394 10.7685 10.5244C10.6425 10.6548 10.5717 10.8317 10.5717 11.0161C10.5717 11.2005 10.6425 11.3774 10.7685 11.5078C10.8945 11.6382 11.0654 11.7115 11.2435 11.7115H20.7404C20.9185 11.7115 21.0894 11.6382 21.2154 11.5078C21.3414 11.3774 21.4122 11.2005 21.4122 11.0161C21.4122 10.8317 21.3414 10.6548 21.2154 10.5244C21.0894 10.394 20.9185 10.3208 20.7404 10.3208Z" fill="#2B69F5"/>
<path d="M16.9445 3.67934H20.7403C20.9185 3.67934 21.0894 3.60608 21.2154 3.47568C21.3413 3.34527 21.4121 3.16841 21.4121 2.98399C21.4121 2.79957 21.3413 2.62271 21.2154 2.4923C21.0894 2.3619 20.9185 2.28864 20.7403 2.28864H16.9445C16.7663 2.28864 16.5954 2.3619 16.4695 2.4923C16.3435 2.62271 16.2727 2.79957 16.2727 2.98399C16.2727 3.16841 16.3435 3.34527 16.4695 3.47568C16.5954 3.60608 16.7663 3.67934 16.9445 3.67934Z" fill="#2B69F5"/>
</svg>
