<svg width="21" height="16" viewBox="0 0 21 16" fill="none" xmlns="http://www.w3.org/2000/svg">
<path d="M0.292893 7.29292C-0.0976311 7.68345 -0.0976311 8.31661 0.292893 8.70714L6.65685 15.0711C7.04738 15.4616 7.68054 15.4616 8.07107 15.0711C8.46159 14.6806 8.46159 14.0474 8.07107 13.6569L2.41421 8.00003L8.07107 2.34318C8.46159 1.95265 8.46159 1.31949 8.07107 0.928963C7.68054 0.538438 7.04738 0.538438 6.65685 0.928963L0.292893 7.29292ZM19.5715 9.00003C20.1237 9.00003 20.5715 8.55232 20.5715 8.00003C20.5715 7.44775 20.1237 7.00003 19.5715 7.00003V9.00003ZM1 9.00003H19.5715V7.00003H1V9.00003Z" fill="#2D2D2D"/>
</svg>
