<svg width="84" height="85" viewBox="0 0 84 85" fill="none" xmlns="http://www.w3.org/2000/svg">
<g filter="url(#filter0_d_27_955)">
<path d="M38.6625 41.3088L38.6927 38.0725C38.6927 37.1788 39.4245 36.4527 40.3308 36.4471H43.6588C44.5692 36.4471 45.3073 37.1748 45.3073 38.0725V41.5892C45.3072 42.3643 45.9415 42.9943 46.7276 43H48.9981C50.0585 43.0026 51.0764 42.5892 51.8272 41.8508C52.578 41.1124 53 40.1097 53 39.0641V29.0457C53 28.2011 52.6203 27.3999 51.9632 26.858L44.2498 20.7754C42.9014 19.7115 40.9757 19.7459 39.6673 20.8572L32.1197 26.858C31.4316 27.3839 31.0203 28.1875 31 29.0457V39.0539C31 41.2332 32.7917 43 35.0019 43H37.2205C37.599 43.0027 37.963 42.8563 38.2316 42.5934C38.5002 42.3304 38.6513 41.9726 38.6513 41.5994L38.6625 41.3088Z" stroke="white" stroke-width="2" shape-rendering="crispEdges"/>
</g>
<defs>
<filter id="filter0_d_27_955" x="0" y="0" width="84" height="85" filterUnits="userSpaceOnUse" color-interpolation-filters="sRGB">
<feFlood flood-opacity="0" result="BackgroundImageFix"/>
<feColorMatrix in="SourceAlpha" type="matrix" values="0 0 0 0 0 0 0 0 0 0 0 0 0 0 0 0 0 0 127 0" result="hardAlpha"/>
<feOffset dy="11"/>
<feGaussianBlur stdDeviation="15"/>
<feComposite in2="hardAlpha" operator="out"/>
<feColorMatrix type="matrix" values="0 0 0 0 0 0 0 0 0 0 0 0 0 0 0 0 0 0 0.13 0"/>
<feBlend mode="normal" in2="BackgroundImageFix" result="effect1_dropShadow_27_955"/>
<feBlend mode="normal" in="SourceGraphic" in2="effect1_dropShadow_27_955" result="shape"/>
</filter>
</defs>
</svg>
