<svg width="41" height="13" viewBox="0 0 41 13" fill="none" xmlns="http://www.w3.org/2000/svg">
<path d="M15.4029 0.23147L10.1662 12.8038H6.74952L4.17285 2.76908C4.01619 2.15187 3.88119 1.92544 3.40452 1.66548C2.62785 1.24115 1.34452 0.843649 0.216187 0.595423L0.292853 0.23147H5.79285C6.15227 0.231107 6.49997 0.360052 6.7732 0.595028C7.04643 0.830004 7.22719 1.15553 7.28285 1.51285L8.64452 8.78856L12.0079 0.23147H15.4029ZM28.7912 8.69967C28.8045 5.38048 24.2312 5.19767 24.2629 3.71502C24.2729 3.26385 24.6995 2.78417 25.6329 2.66174C26.7267 2.5572 27.8282 2.7519 28.8212 3.22528L29.3879 0.558524C28.4211 0.192802 27.3973 0.00366589 26.3645 1.52588e-05C23.1695 1.52588e-05 20.9212 1.71076 20.9012 4.1578C20.8812 5.9675 22.5062 6.9755 23.7312 7.57929C24.9912 8.19483 25.4145 8.59065 25.4079 9.14077C25.3995 9.98608 24.4045 10.3567 23.4745 10.3718C21.8495 10.397 20.9079 9.93073 20.1545 9.57852L19.5695 12.3325C20.3245 12.6813 21.7179 12.9866 23.1629 13C26.5579 13 28.7795 11.3127 28.7912 8.69967ZM37.2262 12.8038H40.2162L37.6079 0.23147H34.8479C34.553 0.22872 34.264 0.315193 34.0186 0.479676C33.7731 0.64416 33.5824 0.879065 33.4712 1.15393L28.6229 12.8038H32.0162L32.6912 10.9253H36.8379L37.2262 12.8038ZM33.6212 8.34913L35.3212 3.62781L36.3012 8.34913H33.6212ZM20.0212 0.23147L17.3495 12.8038H14.1162L16.7912 0.23147H20.0212Z" fill="white"/>
</svg>
